<svg xmlns="http://www.w3.org/2000/svg" xmlns:xlink="http://www.w3.org/1999/xlink" width="2000" viewBox="0 0 1500 1499.999933" height="2000" preserveAspectRatio="xMidYMid meet"><defs><g/><clipPath id="6699bab080"><path d="M 656.25 469 L 843.75 469 L 843.75 703.5 L 656.25 703.5 Z M 656.25 469" clip-rule="nonzero"/></clipPath><mask id="69752c6ef7"><g><g transform="matrix(1.25, 0, 0, 1.24867, 656.249977, 468.74994)"/></g></mask></defs><g transform="matrix(1.25, 0, 0, 1.25, 0.00003335, -0.00002)"/><g clip-path="url(#6699bab080)"><g mask="url(#69752c6ef7)"><g transform="matrix(1.25, 0, 0, 1.24867, 656.249977, 468.74994)"/></g></g><g fill="#000000" fill-opacity="1"><g transform="translate(254.782453, 869.999905)"><g><path d="M 129.140625 -92.25 C 140.648438 -92.25 149.765625 -88.914062 156.484375 -82.25 C 163.203125 -75.59375 166.5625 -65.597656 166.5625 -52.265625 L 166.5625 0 L 145.203125 0 L 145.203125 -49.546875 C 145.203125 -57.515625 143.4375 -63.519531 139.90625 -67.5625 C 136.375 -71.601562 131.304688 -73.625 124.703125 -73.625 C 117.523438 -73.625 111.769531 -71.257812 107.4375 -66.53125 C 103.113281 -61.8125 100.953125 -55.066406 100.953125 -46.296875 L 100.953125 0 L 79.609375 0 L 79.609375 -49.546875 C 79.609375 -57.515625 77.84375 -63.519531 74.3125 -67.5625 C 70.78125 -71.601562 65.710938 -73.625 59.109375 -73.625 C 51.816406 -73.625 46.035156 -71.289062 41.765625 -66.625 C 37.492188 -61.957031 35.359375 -55.179688 35.359375 -46.296875 L 35.359375 0 L 14.015625 0 L 14.015625 -91.21875 L 34.34375 -91.21875 L 34.34375 -79.609375 C 37.757812 -83.703125 42.023438 -86.832031 47.140625 -89 C 52.265625 -91.164062 57.960938 -92.25 64.234375 -92.25 C 71.066406 -92.25 77.128906 -90.96875 82.421875 -88.40625 C 87.722656 -85.84375 91.910156 -82.054688 94.984375 -77.046875 C 98.742188 -81.828125 103.582031 -85.554688 109.5 -88.234375 C 115.425781 -90.910156 121.972656 -92.25 129.140625 -92.25 Z M 129.140625 -92.25"/></g></g></g><g fill="#000000" fill-opacity="1"><g transform="translate(427.826743, 869.999905)"><g><path d="M 99.765625 -45.09375 C 99.765625 -43.613281 99.648438 -41.507812 99.421875 -38.78125 L 27.84375 -38.78125 C 29.09375 -32.0625 32.363281 -26.734375 37.65625 -22.796875 C 42.957031 -18.867188 49.535156 -16.90625 57.390625 -16.90625 C 67.421875 -16.90625 75.679688 -20.207031 82.171875 -26.8125 L 93.609375 -13.671875 C 89.515625 -8.773438 84.332031 -5.070312 78.0625 -2.5625 C 71.800781 -0.0507812 64.742188 1.203125 56.890625 1.203125 C 46.867188 1.203125 38.039062 -0.789062 30.40625 -4.78125 C 22.78125 -8.769531 16.882812 -14.320312 12.71875 -21.4375 C 8.5625 -28.550781 6.484375 -36.609375 6.484375 -45.609375 C 6.484375 -54.492188 8.503906 -62.492188 12.546875 -69.609375 C 16.597656 -76.734375 22.207031 -82.285156 29.375 -86.265625 C 36.550781 -90.253906 44.640625 -92.25 53.640625 -92.25 C 62.523438 -92.25 70.46875 -90.28125 77.46875 -86.34375 C 84.46875 -82.414062 89.929688 -76.894531 93.859375 -69.78125 C 97.796875 -62.664062 99.765625 -54.4375 99.765625 -45.09375 Z M 53.640625 -75.171875 C 46.804688 -75.171875 41.023438 -73.144531 36.296875 -69.09375 C 31.578125 -65.050781 28.703125 -59.671875 27.671875 -52.953125 L 79.4375 -52.953125 C 78.519531 -59.554688 75.726562 -64.910156 71.0625 -69.015625 C 66.394531 -73.117188 60.585938 -75.171875 53.640625 -75.171875 Z M 53.640625 -75.171875"/></g></g></g><g fill="#000000" fill-opacity="1"><g transform="translate(527.24584, 869.999905)"><g><path d="M 65.765625 -92.25 C 77.265625 -92.25 86.488281 -88.890625 93.4375 -82.171875 C 100.382812 -75.453125 103.859375 -65.484375 103.859375 -52.265625 L 103.859375 0 L 82.515625 0 L 82.515625 -49.546875 C 82.515625 -57.515625 80.632812 -63.519531 76.875 -67.5625 C 73.113281 -71.601562 67.757812 -73.625 60.8125 -73.625 C 52.957031 -73.625 46.75 -71.257812 42.1875 -66.53125 C 37.632812 -61.8125 35.359375 -55.007812 35.359375 -46.125 L 35.359375 0 L 14.015625 0 L 14.015625 -126.75 L 35.359375 -126.75 L 35.359375 -80.625 C 38.890625 -84.382812 43.242188 -87.257812 48.421875 -89.25 C 53.609375 -91.25 59.390625 -92.25 65.765625 -92.25 Z M 65.765625 -92.25"/></g></g></g><g fill="#000000" fill-opacity="1"><g transform="translate(637.426846, 869.999905)"><g><path d="M 103.34375 -126.75 L 103.34375 0 L 82.859375 0 L 82.859375 -11.78125 C 79.328125 -7.457031 74.96875 -4.210938 69.78125 -2.046875 C 64.601562 0.117188 58.878906 1.203125 52.609375 1.203125 C 43.847656 1.203125 35.960938 -0.734375 28.953125 -4.609375 C 21.953125 -8.484375 16.457031 -13.976562 12.46875 -21.09375 C 8.476562 -28.21875 6.484375 -36.390625 6.484375 -45.609375 C 6.484375 -54.835938 8.476562 -62.976562 12.46875 -70.03125 C 16.457031 -77.09375 21.953125 -82.5625 28.953125 -86.4375 C 35.960938 -90.3125 43.847656 -92.25 52.609375 -92.25 C 58.648438 -92.25 64.175781 -91.222656 69.1875 -89.171875 C 74.195312 -87.117188 78.46875 -84.046875 82 -79.953125 L 82 -126.75 Z M 55.171875 -17.078125 C 60.296875 -17.078125 64.910156 -18.242188 69.015625 -20.578125 C 73.117188 -22.921875 76.363281 -26.253906 78.75 -30.578125 C 81.144531 -34.898438 82.34375 -39.910156 82.34375 -45.609375 C 82.34375 -51.304688 81.144531 -56.316406 78.75 -60.640625 C 76.363281 -64.972656 73.117188 -68.304688 69.015625 -70.640625 C 64.910156 -72.972656 60.296875 -74.140625 55.171875 -74.140625 C 50.046875 -74.140625 45.429688 -72.972656 41.328125 -70.640625 C 37.234375 -68.304688 33.988281 -64.972656 31.59375 -60.640625 C 29.207031 -56.316406 28.015625 -51.304688 28.015625 -45.609375 C 28.015625 -39.910156 29.207031 -34.898438 31.59375 -30.578125 C 33.988281 -26.253906 37.234375 -22.921875 41.328125 -20.578125 C 45.429688 -18.242188 50.046875 -17.078125 55.171875 -17.078125 Z M 55.171875 -17.078125"/></g></g></g><g fill="#000000" fill-opacity="1"><g transform="translate(747.94948, 869.999905)"><g><path d="M 14.015625 -91.21875 L 35.359375 -91.21875 L 35.359375 0 L 14.015625 0 Z M 24.765625 -106.25 C 20.890625 -106.25 17.640625 -107.472656 15.015625 -109.921875 C 12.398438 -112.367188 11.09375 -115.414062 11.09375 -119.0625 C 11.09375 -122.707031 12.398438 -125.753906 15.015625 -128.203125 C 17.640625 -130.648438 20.890625 -131.875 24.765625 -131.875 C 28.640625 -131.875 31.882812 -130.707031 34.5 -128.375 C 37.125 -126.039062 38.4375 -123.109375 38.4375 -119.578125 C 38.4375 -115.816406 37.15625 -112.65625 34.59375 -110.09375 C 32.03125 -107.53125 28.753906 -106.25 24.765625 -106.25 Z M 24.765625 -106.25"/></g></g></g><g fill="#000000" fill-opacity="1"><g transform="translate(830.79806, 869.999905)"><g><path d="M 4.609375 34.34375 C -4.386719 34.34375 -11.222656 32.578125 -15.890625 29.046875 L -9.734375 13.15625 C -6.546875 15.539062 -2.386719 16.734375 2.734375 16.734375 C 6.722656 16.734375 9.769531 15.507812 11.875 13.0625 C 13.976562 10.613281 15.03125 7 15.03125 2.21875 L 15.03125 -91.21875 L 36.390625 -91.21875 L 36.390625 1.703125 C 36.390625 11.835938 33.597656 19.8125 28.015625 25.625 C 22.429688 31.4375 14.628906 34.34375 4.609375 34.34375 Z M 25.625 -106.25 C 21.75 -106.25 18.5 -107.472656 15.875 -109.921875 C 13.257812 -112.367188 11.953125 -115.414062 11.953125 -119.0625 C 11.953125 -122.707031 13.257812 -125.753906 15.875 -128.203125 C 18.5 -130.648438 21.75 -131.875 25.625 -131.875 C 29.5 -131.875 32.742188 -130.707031 35.359375 -128.375 C 37.984375 -126.039062 39.296875 -123.109375 39.296875 -119.578125 C 39.296875 -115.816406 38.015625 -112.65625 35.453125 -110.09375 C 32.890625 -107.53125 29.613281 -106.25 25.625 -106.25 Z M 25.625 -106.25"/></g></g></g><g fill="#000000" fill-opacity="1"><g transform="translate(874.357657, 869.999905)"><g><path d="M 48.859375 -92.25 C 62.296875 -92.25 72.570312 -89.03125 79.6875 -82.59375 C 86.8125 -76.15625 90.375 -66.445312 90.375 -53.46875 L 90.375 0 L 70.203125 0 L 70.203125 -11.109375 C 67.585938 -7.117188 63.859375 -4.066406 59.015625 -1.953125 C 54.179688 0.148438 48.347656 1.203125 41.515625 1.203125 C 34.679688 1.203125 28.703125 0.0351562 23.578125 -2.296875 C 18.453125 -4.640625 14.492188 -7.890625 11.703125 -12.046875 C 8.910156 -16.203125 7.515625 -20.898438 7.515625 -26.140625 C 7.515625 -34.335938 10.5625 -40.910156 16.65625 -45.859375 C 22.75 -50.816406 32.34375 -53.296875 45.4375 -53.296875 L 69.015625 -53.296875 L 69.015625 -54.671875 C 69.015625 -61.046875 67.101562 -65.941406 63.28125 -69.359375 C 59.46875 -72.773438 53.804688 -74.484375 46.296875 -74.484375 C 41.171875 -74.484375 36.128906 -73.6875 31.171875 -72.09375 C 26.222656 -70.5 22.039062 -68.273438 18.625 -65.421875 L 10.25 -80.96875 C 15.03125 -84.613281 20.78125 -87.40625 27.5 -89.34375 C 34.21875 -91.28125 41.335938 -92.25 48.859375 -92.25 Z M 45.953125 -14.34375 C 51.304688 -14.34375 56.0625 -15.566406 60.21875 -18.015625 C 64.375 -20.460938 67.304688 -23.96875 69.015625 -28.53125 L 69.015625 -39.125 L 46.984375 -39.125 C 34.679688 -39.125 28.53125 -35.078125 28.53125 -26.984375 C 28.53125 -23.117188 30.066406 -20.046875 33.140625 -17.765625 C 36.210938 -15.484375 40.484375 -14.34375 45.953125 -14.34375 Z M 45.953125 -14.34375"/></g></g></g><g fill="#000000" fill-opacity="1"><g transform="translate(971.214354, 869.999905)"><g><path d="M 64.578125 -92.25 C 73.453125 -92.25 81.390625 -90.3125 88.390625 -86.4375 C 95.398438 -82.5625 100.898438 -77.09375 104.890625 -70.03125 C 108.878906 -62.976562 110.875 -54.835938 110.875 -45.609375 C 110.875 -36.390625 108.878906 -28.21875 104.890625 -21.09375 C 100.898438 -13.976562 95.398438 -8.484375 88.390625 -4.609375 C 81.390625 -0.734375 73.453125 1.203125 64.578125 1.203125 C 58.304688 1.203125 52.578125 0.117188 47.390625 -2.046875 C 42.210938 -4.210938 37.863281 -7.457031 34.34375 -11.78125 L 34.34375 0 L 14.015625 0 L 14.015625 -126.75 L 35.359375 -126.75 L 35.359375 -80.125 C 39.003906 -84.101562 43.300781 -87.117188 48.25 -89.171875 C 53.207031 -91.222656 58.648438 -92.25 64.578125 -92.25 Z M 62.1875 -17.078125 C 70.039062 -17.078125 76.5 -19.695312 81.5625 -24.9375 C 86.632812 -30.175781 89.171875 -37.066406 89.171875 -45.609375 C 89.171875 -54.148438 86.632812 -61.039062 81.5625 -66.28125 C 76.5 -71.519531 70.039062 -74.140625 62.1875 -74.140625 C 57.0625 -74.140625 52.445312 -72.972656 48.34375 -70.640625 C 44.238281 -68.304688 40.988281 -64.972656 38.59375 -60.640625 C 36.207031 -56.316406 35.015625 -51.304688 35.015625 -45.609375 C 35.015625 -39.910156 36.207031 -34.898438 38.59375 -30.578125 C 40.988281 -26.253906 44.238281 -22.921875 48.34375 -20.578125 C 52.445312 -18.242188 57.0625 -17.078125 62.1875 -17.078125 Z M 62.1875 -17.078125"/></g></g></g><g fill="#000000" fill-opacity="1"><g transform="translate(1081.566196, 869.999905)"><g><path d="M 34.34375 -77.890625 C 40.488281 -87.460938 51.304688 -92.25 66.796875 -92.25 L 66.796875 -71.921875 C 64.972656 -72.265625 63.320312 -72.4375 61.84375 -72.4375 C 53.53125 -72.4375 47.035156 -70.015625 42.359375 -65.171875 C 37.691406 -60.328125 35.359375 -53.351562 35.359375 -44.25 L 35.359375 0 L 14.015625 0 L 14.015625 -91.21875 L 34.34375 -91.21875 Z M 34.34375 -77.890625"/></g></g></g><g fill="#000000" fill-opacity="1"><g transform="translate(1146.478819, 869.999905)"><g><path d="M 99.421875 -91.21875 L 56.71875 7.34375 C 52.726562 17.25 47.882812 24.222656 42.1875 28.265625 C 36.5 32.316406 29.613281 34.34375 21.53125 34.34375 C 16.96875 34.34375 12.460938 33.597656 8.015625 32.109375 C 3.578125 30.628906 -0.0625 28.582031 -2.90625 25.96875 L 5.640625 10.25 C 7.691406 12.1875 10.109375 13.722656 12.890625 14.859375 C 15.679688 16.003906 18.503906 16.578125 21.359375 16.578125 C 25.109375 16.578125 28.207031 15.609375 30.65625 13.671875 C 33.113281 11.734375 35.363281 8.484375 37.40625 3.921875 L 38.953125 0.34375 L -0.859375 -91.21875 L 21.359375 -91.21875 L 50.046875 -23.75 L 78.921875 -91.21875 Z M 99.421875 -91.21875"/></g></g></g><g fill="#d4a464" fill-opacity="1"><g transform="translate(311.670387, 995.999894)"><g><path d="M 12.359375 -51.015625 L 12.359375 0 L 6.171875 0 L 6.171875 -51.015625 Z M 12.359375 -51.015625"/></g></g></g><g fill="#d4a464" fill-opacity="1"><g transform="translate(331.610296, 995.999894)"><g><path d="M 11.265625 -23.015625 L 11.265625 0 L 5.375 0 L 5.375 -38.265625 L 11.0625 -38.265625 L 11.0625 -32.28125 L 11.5625 -32.28125 C 12.457031 -34.226562 13.816406 -35.796875 15.640625 -36.984375 C 17.472656 -38.171875 19.832031 -38.765625 22.71875 -38.765625 C 26.59375 -38.765625 29.71875 -37.578125 32.09375 -35.203125 C 34.476562 -32.828125 35.671875 -29.195312 35.671875 -24.3125 L 35.671875 0 L 29.796875 0 L 29.796875 -23.921875 C 29.796875 -26.921875 29.015625 -29.265625 27.453125 -30.953125 C 25.890625 -32.640625 23.75 -33.484375 21.03125 -33.484375 C 18.21875 -33.484375 15.882812 -32.570312 14.03125 -30.75 C 12.1875 -28.9375 11.265625 -26.359375 11.265625 -23.015625 Z M 11.265625 -23.015625"/></g></g></g><g fill="#d4a464" fill-opacity="1"><g transform="translate(374.073241, 995.999894)"><g><path d="M 19.828125 0.796875 C 16.640625 0.796875 13.820312 -0.0078125 11.375 -1.625 C 8.9375 -3.25 7.03125 -5.539062 5.65625 -8.5 C 4.28125 -11.46875 3.59375 -14.976562 3.59375 -19.03125 C 3.59375 -23.050781 4.28125 -26.539062 5.65625 -29.5 C 7.03125 -32.457031 8.945312 -34.738281 11.40625 -36.34375 C 13.863281 -37.957031 16.707031 -38.765625 19.9375 -38.765625 C 22.425781 -38.765625 24.394531 -38.351562 25.84375 -37.53125 C 27.300781 -36.707031 28.414062 -35.773438 29.1875 -34.734375 C 29.957031 -33.703125 30.5625 -32.851562 31 -32.1875 L 31.484375 -32.1875 L 31.484375 -51.015625 L 37.375 -51.015625 L 37.375 0 L 31.6875 0 L 31.6875 -5.875 L 31 -5.875 C 30.5625 -5.175781 29.941406 -4.300781 29.140625 -3.25 C 28.347656 -2.195312 27.210938 -1.257812 25.734375 -0.4375 C 24.253906 0.382812 22.285156 0.796875 19.828125 0.796875 Z M 20.625 -4.484375 C 24.164062 -4.484375 26.878906 -5.835938 28.765625 -8.546875 C 30.648438 -11.265625 31.59375 -14.796875 31.59375 -19.140625 C 31.59375 -23.421875 30.660156 -26.878906 28.796875 -29.515625 C 26.941406 -32.160156 24.21875 -33.484375 20.625 -33.484375 C 18.132812 -33.484375 16.0625 -32.847656 14.40625 -31.578125 C 12.757812 -30.304688 11.523438 -28.585938 10.703125 -26.421875 C 9.878906 -24.253906 9.46875 -21.828125 9.46875 -19.140625 C 9.46875 -16.410156 9.882812 -13.9375 10.71875 -11.71875 C 11.5625 -9.5 12.804688 -7.738281 14.453125 -6.4375 C 16.109375 -5.132812 18.164062 -4.484375 20.625 -4.484375 Z M 20.625 -4.484375"/></g></g></g><g fill="#d4a464" fill-opacity="1"><g transform="translate(419.027667, 995.999894)"><g><path d="M 21.421875 0.796875 C 17.734375 0.796875 14.554688 -0.0195312 11.890625 -1.65625 C 9.222656 -3.289062 7.171875 -5.582031 5.734375 -8.53125 C 4.304688 -11.476562 3.59375 -14.910156 3.59375 -18.828125 C 3.59375 -22.753906 4.304688 -26.210938 5.734375 -29.203125 C 7.171875 -32.203125 9.179688 -34.546875 11.765625 -36.234375 C 14.347656 -37.921875 17.367188 -38.765625 20.828125 -38.765625 C 22.816406 -38.765625 24.78125 -38.429688 26.71875 -37.765625 C 28.664062 -37.097656 30.4375 -36.019531 32.03125 -34.53125 C 33.632812 -33.050781 34.90625 -31.085938 35.84375 -28.640625 C 36.789062 -26.203125 37.265625 -23.195312 37.265625 -19.625 L 37.265625 -17.140625 L 9.484375 -17.140625 C 9.617188 -13.054688 10.78125 -9.925781 12.96875 -7.75 C 15.15625 -5.570312 17.972656 -4.484375 21.421875 -4.484375 C 23.734375 -4.484375 25.71875 -4.976562 27.375 -5.96875 C 29.039062 -6.96875 30.25 -8.46875 31 -10.46875 L 36.671875 -8.875 C 35.773438 -5.976562 33.976562 -3.640625 31.28125 -1.859375 C 28.59375 -0.0859375 25.304688 0.796875 21.421875 0.796875 Z M 9.484375 -22.21875 L 31.296875 -22.21875 C 31.296875 -25.457031 30.347656 -28.144531 28.453125 -30.28125 C 26.554688 -32.414062 24.015625 -33.484375 20.828125 -33.484375 C 18.585938 -33.484375 16.644531 -32.957031 15 -31.90625 C 13.351562 -30.863281 12.054688 -29.484375 11.109375 -27.765625 C 10.160156 -26.046875 9.617188 -24.195312 9.484375 -22.21875 Z M 9.484375 -22.21875"/></g></g></g><g fill="#d4a464" fill-opacity="1"><g transform="translate(461.291289, 995.999894)"><g><path d="M 5.375 14.34375 L 5.375 -38.265625 L 11.0625 -38.265625 L 11.0625 -32.1875 L 11.765625 -32.1875 C 12.191406 -32.851562 12.789062 -33.703125 13.5625 -34.734375 C 14.332031 -35.773438 15.441406 -36.707031 16.890625 -37.53125 C 18.347656 -38.351562 20.328125 -38.765625 22.828125 -38.765625 C 26.046875 -38.765625 28.882812 -37.957031 31.34375 -36.34375 C 33.800781 -34.738281 35.71875 -32.457031 37.09375 -29.5 C 38.476562 -26.539062 39.171875 -23.050781 39.171875 -19.03125 C 39.171875 -14.976562 38.476562 -11.46875 37.09375 -8.5 C 35.71875 -5.539062 33.804688 -3.25 31.359375 -1.625 C 28.921875 -0.0078125 26.109375 0.796875 22.921875 0.796875 C 20.460938 0.796875 18.492188 0.382812 17.015625 -0.4375 C 15.535156 -1.257812 14.394531 -2.195312 13.59375 -3.25 C 12.800781 -4.300781 12.191406 -5.175781 11.765625 -5.875 L 11.265625 -5.875 L 11.265625 14.34375 Z M 11.15625 -19.140625 C 11.15625 -14.796875 12.097656 -11.265625 13.984375 -8.546875 C 15.867188 -5.835938 18.582031 -4.484375 22.125 -4.484375 C 24.582031 -4.484375 26.632812 -5.132812 28.28125 -6.4375 C 29.9375 -7.738281 31.179688 -9.5 32.015625 -11.71875 C 32.859375 -13.9375 33.28125 -16.410156 33.28125 -19.140625 C 33.28125 -21.828125 32.867188 -24.253906 32.046875 -26.421875 C 31.222656 -28.585938 29.984375 -30.304688 28.328125 -31.578125 C 26.679688 -32.847656 24.613281 -33.484375 22.125 -33.484375 C 18.53125 -33.484375 15.800781 -32.160156 13.9375 -29.515625 C 12.082031 -26.878906 11.15625 -23.421875 11.15625 -19.140625 Z M 11.15625 -19.140625"/></g></g></g><g fill="#d4a464" fill-opacity="1"><g transform="translate(505.448439, 995.999894)"><g><path d="M 21.421875 0.796875 C 17.734375 0.796875 14.554688 -0.0195312 11.890625 -1.65625 C 9.222656 -3.289062 7.171875 -5.582031 5.734375 -8.53125 C 4.304688 -11.476562 3.59375 -14.910156 3.59375 -18.828125 C 3.59375 -22.753906 4.304688 -26.210938 5.734375 -29.203125 C 7.171875 -32.203125 9.179688 -34.546875 11.765625 -36.234375 C 14.347656 -37.921875 17.367188 -38.765625 20.828125 -38.765625 C 22.816406 -38.765625 24.78125 -38.429688 26.71875 -37.765625 C 28.664062 -37.097656 30.4375 -36.019531 32.03125 -34.53125 C 33.632812 -33.050781 34.90625 -31.085938 35.84375 -28.640625 C 36.789062 -26.203125 37.265625 -23.195312 37.265625 -19.625 L 37.265625 -17.140625 L 9.484375 -17.140625 C 9.617188 -13.054688 10.78125 -9.925781 12.96875 -7.75 C 15.15625 -5.570312 17.972656 -4.484375 21.421875 -4.484375 C 23.734375 -4.484375 25.71875 -4.976562 27.375 -5.96875 C 29.039062 -6.96875 30.25 -8.46875 31 -10.46875 L 36.671875 -8.875 C 35.773438 -5.976562 33.976562 -3.640625 31.28125 -1.859375 C 28.59375 -0.0859375 25.304688 0.796875 21.421875 0.796875 Z M 9.484375 -22.21875 L 31.296875 -22.21875 C 31.296875 -25.457031 30.347656 -28.144531 28.453125 -30.28125 C 26.554688 -32.414062 24.015625 -33.484375 20.828125 -33.484375 C 18.585938 -33.484375 16.644531 -32.957031 15 -31.90625 C 13.351562 -30.863281 12.054688 -29.484375 11.109375 -27.765625 C 10.160156 -26.046875 9.617188 -24.195312 9.484375 -22.21875 Z M 9.484375 -22.21875"/></g></g></g><g fill="#d4a464" fill-opacity="1"><g transform="translate(547.712061, 995.999894)"><g><path d="M 11.265625 -23.015625 L 11.265625 0 L 5.375 0 L 5.375 -38.265625 L 11.0625 -38.265625 L 11.0625 -32.28125 L 11.5625 -32.28125 C 12.457031 -34.226562 13.816406 -35.796875 15.640625 -36.984375 C 17.472656 -38.171875 19.832031 -38.765625 22.71875 -38.765625 C 26.59375 -38.765625 29.71875 -37.578125 32.09375 -35.203125 C 34.476562 -32.828125 35.671875 -29.195312 35.671875 -24.3125 L 35.671875 0 L 29.796875 0 L 29.796875 -23.921875 C 29.796875 -26.921875 29.015625 -29.265625 27.453125 -30.953125 C 25.890625 -32.640625 23.75 -33.484375 21.03125 -33.484375 C 18.21875 -33.484375 15.882812 -32.570312 14.03125 -30.75 C 12.1875 -28.9375 11.265625 -26.359375 11.265625 -23.015625 Z M 11.265625 -23.015625"/></g></g></g><g fill="#d4a464" fill-opacity="1"><g transform="translate(590.175016, 995.999894)"><g><path d="M 19.828125 0.796875 C 16.640625 0.796875 13.820312 -0.0078125 11.375 -1.625 C 8.9375 -3.25 7.03125 -5.539062 5.65625 -8.5 C 4.28125 -11.46875 3.59375 -14.976562 3.59375 -19.03125 C 3.59375 -23.050781 4.28125 -26.539062 5.65625 -29.5 C 7.03125 -32.457031 8.945312 -34.738281 11.40625 -36.34375 C 13.863281 -37.957031 16.707031 -38.765625 19.9375 -38.765625 C 22.425781 -38.765625 24.394531 -38.351562 25.84375 -37.53125 C 27.300781 -36.707031 28.414062 -35.773438 29.1875 -34.734375 C 29.957031 -33.703125 30.5625 -32.851562 31 -32.1875 L 31.484375 -32.1875 L 31.484375 -51.015625 L 37.375 -51.015625 L 37.375 0 L 31.6875 0 L 31.6875 -5.875 L 31 -5.875 C 30.5625 -5.175781 29.941406 -4.300781 29.140625 -3.25 C 28.347656 -2.195312 27.210938 -1.257812 25.734375 -0.4375 C 24.253906 0.382812 22.285156 0.796875 19.828125 0.796875 Z M 20.625 -4.484375 C 24.164062 -4.484375 26.878906 -5.835938 28.765625 -8.546875 C 30.648438 -11.265625 31.59375 -14.796875 31.59375 -19.140625 C 31.59375 -23.421875 30.660156 -26.878906 28.796875 -29.515625 C 26.941406 -32.160156 24.21875 -33.484375 20.625 -33.484375 C 18.132812 -33.484375 16.0625 -32.847656 14.40625 -31.578125 C 12.757812 -30.304688 11.523438 -28.585938 10.703125 -26.421875 C 9.878906 -24.253906 9.46875 -21.828125 9.46875 -19.140625 C 9.46875 -16.410156 9.882812 -13.9375 10.71875 -11.71875 C 11.5625 -9.5 12.804688 -7.738281 14.453125 -6.4375 C 16.109375 -5.132812 18.164062 -4.484375 20.625 -4.484375 Z M 20.625 -4.484375"/></g></g></g><g fill="#d4a464" fill-opacity="1"><g transform="translate(635.129419, 995.999894)"><g><path d="M 21.421875 0.796875 C 17.734375 0.796875 14.554688 -0.0195312 11.890625 -1.65625 C 9.222656 -3.289062 7.171875 -5.582031 5.734375 -8.53125 C 4.304688 -11.476562 3.59375 -14.910156 3.59375 -18.828125 C 3.59375 -22.753906 4.304688 -26.210938 5.734375 -29.203125 C 7.171875 -32.203125 9.179688 -34.546875 11.765625 -36.234375 C 14.347656 -37.921875 17.367188 -38.765625 20.828125 -38.765625 C 22.816406 -38.765625 24.78125 -38.429688 26.71875 -37.765625 C 28.664062 -37.097656 30.4375 -36.019531 32.03125 -34.53125 C 33.632812 -33.050781 34.90625 -31.085938 35.84375 -28.640625 C 36.789062 -26.203125 37.265625 -23.195312 37.265625 -19.625 L 37.265625 -17.140625 L 9.484375 -17.140625 C 9.617188 -13.054688 10.78125 -9.925781 12.96875 -7.75 C 15.15625 -5.570312 17.972656 -4.484375 21.421875 -4.484375 C 23.734375 -4.484375 25.71875 -4.976562 27.375 -5.96875 C 29.039062 -6.96875 30.25 -8.46875 31 -10.46875 L 36.671875 -8.875 C 35.773438 -5.976562 33.976562 -3.640625 31.28125 -1.859375 C 28.59375 -0.0859375 25.304688 0.796875 21.421875 0.796875 Z M 9.484375 -22.21875 L 31.296875 -22.21875 C 31.296875 -25.457031 30.347656 -28.144531 28.453125 -30.28125 C 26.554688 -32.414062 24.015625 -33.484375 20.828125 -33.484375 C 18.585938 -33.484375 16.644531 -32.957031 15 -31.90625 C 13.351562 -30.863281 12.054688 -29.484375 11.109375 -27.765625 C 10.160156 -26.046875 9.617188 -24.195312 9.484375 -22.21875 Z M 9.484375 -22.21875"/></g></g></g><g fill="#d4a464" fill-opacity="1"><g transform="translate(677.393041, 995.999894)"><g><path d="M 11.265625 -23.015625 L 11.265625 0 L 5.375 0 L 5.375 -38.265625 L 11.0625 -38.265625 L 11.0625 -32.28125 L 11.5625 -32.28125 C 12.457031 -34.226562 13.816406 -35.796875 15.640625 -36.984375 C 17.472656 -38.171875 19.832031 -38.765625 22.71875 -38.765625 C 26.59375 -38.765625 29.71875 -37.578125 32.09375 -35.203125 C 34.476562 -32.828125 35.671875 -29.195312 35.671875 -24.3125 L 35.671875 0 L 29.796875 0 L 29.796875 -23.921875 C 29.796875 -26.921875 29.015625 -29.265625 27.453125 -30.953125 C 25.890625 -32.640625 23.75 -33.484375 21.03125 -33.484375 C 18.21875 -33.484375 15.882812 -32.570312 14.03125 -30.75 C 12.1875 -28.9375 11.265625 -26.359375 11.265625 -23.015625 Z M 11.265625 -23.015625"/></g></g></g><g fill="#d4a464" fill-opacity="1"><g transform="translate(719.85602, 995.999894)"><g><path d="M 22.03125 -38.265625 L 22.03125 -33.28125 L 13.859375 -33.28125 L 13.859375 -10.96875 C 13.859375 -9.300781 14.101562 -8.054688 14.59375 -7.234375 C 15.082031 -6.410156 15.710938 -5.863281 16.484375 -5.59375 C 17.253906 -5.320312 18.070312 -5.1875 18.9375 -5.1875 C 19.582031 -5.1875 20.113281 -5.222656 20.53125 -5.296875 C 20.945312 -5.367188 21.28125 -5.429688 21.53125 -5.484375 L 22.71875 -0.203125 C 22.320312 -0.046875 21.765625 0.109375 21.046875 0.265625 C 20.335938 0.421875 19.4375 0.5 18.34375 0.5 C 16.675781 0.5 15.050781 0.144531 13.46875 -0.5625 C 11.882812 -1.28125 10.570312 -2.367188 9.53125 -3.828125 C 8.488281 -5.296875 7.96875 -7.144531 7.96875 -9.375 L 7.96875 -33.28125 L 2.1875 -33.28125 L 2.1875 -38.265625 L 7.96875 -38.265625 L 7.96875 -47.4375 L 13.859375 -47.4375 L 13.859375 -38.265625 Z M 22.03125 -38.265625"/></g></g></g><g fill="#d4a464" fill-opacity="1"><g transform="translate(767.907881, 995.999894)"><g><path d="M 15.453125 0 L 1.5 -51.015625 L 7.765625 -51.015625 L 18.4375 -9.46875 L 18.9375 -9.46875 L 29.796875 -51.015625 L 36.765625 -51.015625 L 47.640625 -9.46875 L 48.140625 -9.46875 L 58.796875 -51.015625 L 65.078125 -51.015625 L 51.125 0 L 44.75 0 L 33.484375 -40.65625 L 33.078125 -40.65625 L 21.828125 0 Z M 15.453125 0"/></g></g></g><g fill="#d4a464" fill-opacity="1"><g transform="translate(835.883629, 995.999894)"><g><path d="M 21.421875 0.796875 C 17.734375 0.796875 14.554688 -0.0195312 11.890625 -1.65625 C 9.222656 -3.289062 7.171875 -5.582031 5.734375 -8.53125 C 4.304688 -11.476562 3.59375 -14.910156 3.59375 -18.828125 C 3.59375 -22.753906 4.304688 -26.210938 5.734375 -29.203125 C 7.171875 -32.203125 9.179688 -34.546875 11.765625 -36.234375 C 14.347656 -37.921875 17.367188 -38.765625 20.828125 -38.765625 C 22.816406 -38.765625 24.78125 -38.429688 26.71875 -37.765625 C 28.664062 -37.097656 30.4375 -36.019531 32.03125 -34.53125 C 33.632812 -33.050781 34.90625 -31.085938 35.84375 -28.640625 C 36.789062 -26.203125 37.265625 -23.195312 37.265625 -19.625 L 37.265625 -17.140625 L 9.484375 -17.140625 C 9.617188 -13.054688 10.78125 -9.925781 12.96875 -7.75 C 15.15625 -5.570312 17.972656 -4.484375 21.421875 -4.484375 C 23.734375 -4.484375 25.71875 -4.976562 27.375 -5.96875 C 29.039062 -6.96875 30.25 -8.46875 31 -10.46875 L 36.671875 -8.875 C 35.773438 -5.976562 33.976562 -3.640625 31.28125 -1.859375 C 28.59375 -0.0859375 25.304688 0.796875 21.421875 0.796875 Z M 9.484375 -22.21875 L 31.296875 -22.21875 C 31.296875 -25.457031 30.347656 -28.144531 28.453125 -30.28125 C 26.554688 -32.414062 24.015625 -33.484375 20.828125 -33.484375 C 18.585938 -33.484375 16.644531 -32.957031 15 -31.90625 C 13.351562 -30.863281 12.054688 -29.484375 11.109375 -27.765625 C 10.160156 -26.046875 9.617188 -24.195312 9.484375 -22.21875 Z M 9.484375 -22.21875"/></g></g></g><g fill="#d4a464" fill-opacity="1"><g transform="translate(878.147251, 995.999894)"><g><path d="M 6.171875 0 L 6.171875 -51.015625 L 12.0625 -51.015625 L 12.0625 -32.1875 L 12.5625 -32.1875 C 12.988281 -32.851562 13.585938 -33.703125 14.359375 -34.734375 C 15.128906 -35.773438 16.238281 -36.707031 17.6875 -37.53125 C 19.144531 -38.351562 21.125 -38.765625 23.625 -38.765625 C 26.84375 -38.765625 29.679688 -37.957031 32.140625 -36.34375 C 34.597656 -34.738281 36.515625 -32.457031 37.890625 -29.5 C 39.273438 -26.539062 39.96875 -23.050781 39.96875 -19.03125 C 39.96875 -14.976562 39.273438 -11.46875 37.890625 -8.5 C 36.515625 -5.539062 34.601562 -3.25 32.15625 -1.625 C 29.71875 -0.0078125 26.90625 0.796875 23.71875 0.796875 C 21.257812 0.796875 19.289062 0.382812 17.8125 -0.4375 C 16.332031 -1.257812 15.191406 -2.195312 14.390625 -3.25 C 13.597656 -4.300781 12.988281 -5.175781 12.5625 -5.875 L 11.859375 -5.875 L 11.859375 0 Z M 11.953125 -19.140625 C 11.953125 -14.796875 12.894531 -11.265625 14.78125 -8.546875 C 16.664062 -5.835938 19.378906 -4.484375 22.921875 -4.484375 C 25.378906 -4.484375 27.429688 -5.132812 29.078125 -6.4375 C 30.734375 -7.738281 31.976562 -9.5 32.8125 -11.71875 C 33.65625 -13.9375 34.078125 -16.410156 34.078125 -19.140625 C 34.078125 -21.828125 33.664062 -24.253906 32.84375 -26.421875 C 32.019531 -28.585938 30.78125 -30.304688 29.125 -31.578125 C 27.476562 -32.847656 25.410156 -33.484375 22.921875 -33.484375 C 19.335938 -33.484375 16.613281 -32.160156 14.75 -29.515625 C 12.882812 -26.878906 11.953125 -23.421875 11.953125 -19.140625 Z M 11.953125 -19.140625"/></g></g></g><g fill="#d4a464" fill-opacity="1"><g transform="translate(944.237516, 995.999894)"><g><path d="M 34.078125 -38.265625 C 33.785156 -40.785156 32.570312 -42.742188 30.4375 -44.140625 C 28.3125 -45.535156 25.707031 -46.234375 22.625 -46.234375 C 19.238281 -46.234375 16.515625 -45.429688 14.453125 -43.828125 C 12.390625 -42.234375 11.359375 -40.210938 11.359375 -37.765625 C 11.359375 -35.941406 11.914062 -34.46875 13.03125 -33.34375 C 14.15625 -32.226562 15.484375 -31.359375 17.015625 -30.734375 C 18.554688 -30.109375 19.957031 -29.628906 21.21875 -29.296875 L 26.40625 -27.90625 C 27.738281 -27.550781 29.222656 -27.066406 30.859375 -26.453125 C 32.492188 -25.835938 34.0625 -25.003906 35.5625 -23.953125 C 37.0625 -22.898438 38.300781 -21.550781 39.28125 -19.90625 C 40.269531 -18.257812 40.765625 -16.242188 40.765625 -13.859375 C 40.765625 -11.097656 40.046875 -8.601562 38.609375 -6.375 C 37.171875 -4.15625 35.078125 -2.390625 32.328125 -1.078125 C 29.578125 0.230469 26.242188 0.890625 22.328125 0.890625 C 16.835938 0.890625 12.484375 -0.398438 9.265625 -2.984375 C 6.046875 -5.578125 4.285156 -8.96875 3.984375 -13.15625 L 10.359375 -13.15625 C 10.523438 -11.226562 11.175781 -9.632812 12.3125 -8.375 C 13.457031 -7.125 14.90625 -6.195312 16.65625 -5.59375 C 18.40625 -4.988281 20.296875 -4.6875 22.328125 -4.6875 C 24.679688 -4.6875 26.796875 -5.070312 28.671875 -5.84375 C 30.546875 -6.613281 32.03125 -7.691406 33.125 -9.078125 C 34.226562 -10.460938 34.78125 -12.085938 34.78125 -13.953125 C 34.78125 -15.648438 34.304688 -17.03125 33.359375 -18.09375 C 32.410156 -19.15625 31.164062 -20.015625 29.625 -20.671875 C 28.082031 -21.335938 26.410156 -21.921875 24.609375 -22.421875 L 18.34375 -24.21875 C 14.351562 -25.363281 11.191406 -27 8.859375 -29.125 C 6.535156 -31.25 5.375 -34.03125 5.375 -37.46875 C 5.375 -40.320312 6.148438 -42.816406 7.703125 -44.953125 C 9.265625 -47.085938 11.359375 -48.75 13.984375 -49.9375 C 16.617188 -51.125 19.566406 -51.71875 22.828125 -51.71875 C 26.109375 -51.71875 29.023438 -51.128906 31.578125 -49.953125 C 34.140625 -48.785156 36.171875 -47.1875 37.671875 -45.15625 C 39.179688 -43.132812 39.976562 -40.835938 40.0625 -38.265625 Z M 34.078125 -38.265625"/></g></g></g><g fill="#d4a464" fill-opacity="1"><g transform="translate(990.387826, 995.999894)"><g><path d="M 22.03125 -38.265625 L 22.03125 -33.28125 L 13.859375 -33.28125 L 13.859375 -10.96875 C 13.859375 -9.300781 14.101562 -8.054688 14.59375 -7.234375 C 15.082031 -6.410156 15.710938 -5.863281 16.484375 -5.59375 C 17.253906 -5.320312 18.070312 -5.1875 18.9375 -5.1875 C 19.582031 -5.1875 20.113281 -5.222656 20.53125 -5.296875 C 20.945312 -5.367188 21.28125 -5.429688 21.53125 -5.484375 L 22.71875 -0.203125 C 22.320312 -0.046875 21.765625 0.109375 21.046875 0.265625 C 20.335938 0.421875 19.4375 0.5 18.34375 0.5 C 16.675781 0.5 15.050781 0.144531 13.46875 -0.5625 C 11.882812 -1.28125 10.570312 -2.367188 9.53125 -3.828125 C 8.488281 -5.296875 7.96875 -7.144531 7.96875 -9.375 L 7.96875 -33.28125 L 2.1875 -33.28125 L 2.1875 -38.265625 L 7.96875 -38.265625 L 7.96875 -47.4375 L 13.859375 -47.4375 L 13.859375 -38.265625 Z M 22.03125 -38.265625"/></g></g></g><g fill="#d4a464" fill-opacity="1"><g transform="translate(1017.303916, 995.999894)"><g><path d="M 29.5 -15.640625 L 29.5 -38.265625 L 35.375 -38.265625 L 35.375 0 L 29.5 0 L 29.5 -6.484375 L 29.09375 -6.484375 C 28.195312 -4.535156 26.800781 -2.882812 24.90625 -1.53125 C 23.019531 -0.175781 20.628906 0.5 17.734375 0.5 C 14.148438 0.5 11.191406 -0.6875 8.859375 -3.0625 C 6.535156 -5.4375 5.375 -9.066406 5.375 -13.953125 L 5.375 -38.265625 L 11.265625 -38.265625 L 11.265625 -14.34375 C 11.265625 -11.5625 12.046875 -9.335938 13.609375 -7.671875 C 15.179688 -6.015625 17.1875 -5.1875 19.625 -5.1875 C 21.09375 -5.1875 22.585938 -5.554688 24.109375 -6.296875 C 25.628906 -7.046875 26.90625 -8.191406 27.9375 -9.734375 C 28.976562 -11.285156 29.5 -13.253906 29.5 -15.640625 Z M 29.5 -15.640625"/></g></g></g><g fill="#d4a464" fill-opacity="1"><g transform="translate(1059.467837, 995.999894)"><g><path d="M 19.828125 0.796875 C 16.640625 0.796875 13.820312 -0.0078125 11.375 -1.625 C 8.9375 -3.25 7.03125 -5.539062 5.65625 -8.5 C 4.28125 -11.46875 3.59375 -14.976562 3.59375 -19.03125 C 3.59375 -23.050781 4.28125 -26.539062 5.65625 -29.5 C 7.03125 -32.457031 8.945312 -34.738281 11.40625 -36.34375 C 13.863281 -37.957031 16.707031 -38.765625 19.9375 -38.765625 C 22.425781 -38.765625 24.394531 -38.351562 25.84375 -37.53125 C 27.300781 -36.707031 28.414062 -35.773438 29.1875 -34.734375 C 29.957031 -33.703125 30.5625 -32.851562 31 -32.1875 L 31.484375 -32.1875 L 31.484375 -51.015625 L 37.375 -51.015625 L 37.375 0 L 31.6875 0 L 31.6875 -5.875 L 31 -5.875 C 30.5625 -5.175781 29.941406 -4.300781 29.140625 -3.25 C 28.347656 -2.195312 27.210938 -1.257812 25.734375 -0.4375 C 24.253906 0.382812 22.285156 0.796875 19.828125 0.796875 Z M 20.625 -4.484375 C 24.164062 -4.484375 26.878906 -5.835938 28.765625 -8.546875 C 30.648438 -11.265625 31.59375 -14.796875 31.59375 -19.140625 C 31.59375 -23.421875 30.660156 -26.878906 28.796875 -29.515625 C 26.941406 -32.160156 24.21875 -33.484375 20.625 -33.484375 C 18.132812 -33.484375 16.0625 -32.847656 14.40625 -31.578125 C 12.757812 -30.304688 11.523438 -28.585938 10.703125 -26.421875 C 9.878906 -24.253906 9.46875 -21.828125 9.46875 -19.140625 C 9.46875 -16.410156 9.882812 -13.9375 10.71875 -11.71875 C 11.5625 -9.5 12.804688 -7.738281 14.453125 -6.4375 C 16.109375 -5.132812 18.164062 -4.484375 20.625 -4.484375 Z M 20.625 -4.484375"/></g></g></g><g fill="#d4a464" fill-opacity="1"><g transform="translate(1104.422332, 995.999894)"><g><path d="M 5.375 0 L 5.375 -38.265625 L 11.265625 -38.265625 L 11.265625 0 Z M 8.375 -44.640625 C 7.226562 -44.640625 6.242188 -45.03125 5.421875 -45.8125 C 4.597656 -46.59375 4.1875 -47.53125 4.1875 -48.625 C 4.1875 -49.726562 4.597656 -50.671875 5.421875 -51.453125 C 6.242188 -52.234375 7.226562 -52.625 8.375 -52.625 C 9.519531 -52.625 10.503906 -52.234375 11.328125 -51.453125 C 12.148438 -50.671875 12.5625 -49.726562 12.5625 -48.625 C 12.5625 -47.53125 12.148438 -46.59375 11.328125 -45.8125 C 10.503906 -45.03125 9.519531 -44.640625 8.375 -44.640625 Z M 8.375 -44.640625"/></g></g></g><g fill="#d4a464" fill-opacity="1"><g transform="translate(1122.468656, 995.999894)"><g><path d="M 20.921875 0.796875 C 17.472656 0.796875 14.445312 -0.0234375 11.84375 -1.671875 C 9.25 -3.316406 7.222656 -5.613281 5.765625 -8.5625 C 4.316406 -11.519531 3.59375 -14.976562 3.59375 -18.9375 C 3.59375 -22.914062 4.316406 -26.390625 5.765625 -29.359375 C 7.222656 -32.335938 9.25 -34.648438 11.84375 -36.296875 C 14.445312 -37.941406 17.472656 -38.765625 20.921875 -38.765625 C 24.378906 -38.765625 27.40625 -37.941406 30 -36.296875 C 32.601562 -34.648438 34.628906 -32.335938 36.078125 -29.359375 C 37.535156 -26.390625 38.265625 -22.914062 38.265625 -18.9375 C 38.265625 -14.976562 37.535156 -11.519531 36.078125 -8.5625 C 34.628906 -5.613281 32.601562 -3.316406 30 -1.671875 C 27.40625 -0.0234375 24.378906 0.796875 20.921875 0.796875 Z M 20.921875 -4.484375 C 23.546875 -4.484375 25.707031 -5.15625 27.40625 -6.5 C 29.101562 -7.84375 30.359375 -9.609375 31.171875 -11.796875 C 31.984375 -13.992188 32.390625 -16.375 32.390625 -18.9375 C 32.390625 -21.488281 31.984375 -23.867188 31.171875 -26.078125 C 30.359375 -28.285156 29.101562 -30.070312 27.40625 -31.4375 C 25.707031 -32.800781 23.546875 -33.484375 20.921875 -33.484375 C 18.296875 -33.484375 16.132812 -32.800781 14.4375 -31.4375 C 12.75 -30.070312 11.5 -28.285156 10.6875 -26.078125 C 9.875 -23.867188 9.46875 -21.488281 9.46875 -18.9375 C 9.46875 -16.375 9.875 -13.992188 10.6875 -11.796875 C 11.5 -9.609375 12.75 -7.84375 14.4375 -6.5 C 16.132812 -5.15625 18.296875 -4.484375 20.921875 -4.484375 Z M 20.921875 -4.484375"/></g></g></g></svg>