<svg xmlns="http://www.w3.org/2000/svg" xmlns:xlink="http://www.w3.org/1999/xlink" width="2000" viewBox="0 0 1500 1499.999933" height="2000" preserveAspectRatio="xMidYMid meet"><defs><g/><mask id="1f7d773ac6"><g><g transform="matrix(1.25, 0, 0, 1.25, 0.00003335, -0.00002)"/></g></mask><clipPath id="adee61baa2"><path d="M 0 585 L 468.75 585 L 468.75 937.5 L 0 937.5 Z M 0 585" clip-rule="nonzero"/></clipPath><mask id="cec8ce0a17"><g><g transform="matrix(1.25, 0, 0, 1.25, 0.00003335, 584.999958)"/></g></mask></defs><g mask="url(#1f7d773ac6)"><g transform="matrix(1.25, 0, 0, 1.25, 0.00003335, -0.00002)"/></g><g clip-path="url(#adee61baa2)"><g mask="url(#cec8ce0a17)"><g transform="matrix(1.25, 0, 0, 1.25, 0.00003335, 584.999958)"/></g></g><g fill="#ffffff" fill-opacity="1"><g transform="translate(343.312504, 788.249912)"><g><path d="M 129.921875 -108.65625 L 129.921875 0 L 112.109375 0 L 112.109375 -70.1875 C 112.109375 -72.988281 112.257812 -76.019531 112.5625 -79.28125 L 79.71875 -17.578125 C 78.164062 -14.628906 75.785156 -13.15625 72.578125 -13.15625 L 69.734375 -13.15625 C 66.523438 -13.15625 64.144531 -14.628906 62.59375 -17.578125 L 29.375 -79.5 C 29.53125 -77.84375 29.65625 -76.210938 29.75 -74.609375 C 29.851562 -73.003906 29.90625 -71.53125 29.90625 -70.1875 L 29.90625 0 L 12.09375 0 L 12.09375 -108.65625 L 27.34375 -108.65625 C 28.25 -108.65625 29.023438 -108.628906 29.671875 -108.578125 C 30.328125 -108.523438 30.914062 -108.398438 31.4375 -108.203125 C 31.96875 -108.003906 32.445312 -107.675781 32.875 -107.21875 C 33.300781 -106.769531 33.710938 -106.171875 34.109375 -105.421875 L 66.65625 -45.078125 C 67.5 -43.484375 68.285156 -41.832031 69.015625 -40.125 C 69.742188 -38.425781 70.457031 -36.671875 71.15625 -34.859375 C 71.851562 -36.710938 72.578125 -38.503906 73.328125 -40.234375 C 74.085938 -41.960938 74.890625 -43.628906 75.734375 -45.234375 L 107.828125 -105.421875 C 108.222656 -106.171875 108.644531 -106.769531 109.09375 -107.21875 C 109.550781 -107.675781 110.039062 -108.003906 110.5625 -108.203125 C 111.09375 -108.398438 111.679688 -108.523438 112.328125 -108.578125 C 112.984375 -108.628906 113.765625 -108.65625 114.671875 -108.65625 Z M 129.921875 -108.65625"/></g></g></g><g fill="#ffffff" fill-opacity="1"><g transform="translate(485.317177, 788.249912)"><g><path d="M 58.828125 -47.40625 C 58.828125 -49.8125 58.488281 -52.078125 57.8125 -54.203125 C 57.144531 -56.335938 56.132812 -58.207031 54.78125 -59.8125 C 53.425781 -61.414062 51.707031 -62.679688 49.625 -63.609375 C 47.550781 -64.535156 45.132812 -65 42.375 -65 C 37.019531 -65 32.800781 -63.46875 29.71875 -60.40625 C 26.632812 -57.351562 24.664062 -53.019531 23.8125 -47.40625 Z M 23.4375 -36.21875 C 23.738281 -32.257812 24.441406 -28.835938 25.546875 -25.953125 C 26.648438 -23.078125 28.101562 -20.695312 29.90625 -18.8125 C 31.707031 -16.9375 33.847656 -15.535156 36.328125 -14.609375 C 38.804688 -13.679688 41.550781 -13.21875 44.5625 -13.21875 C 47.5625 -13.21875 50.148438 -13.566406 52.328125 -14.265625 C 54.515625 -14.972656 56.421875 -15.753906 58.046875 -16.609375 C 59.671875 -17.460938 61.097656 -18.238281 62.328125 -18.9375 C 63.554688 -19.632812 64.742188 -19.984375 65.890625 -19.984375 C 67.453125 -19.984375 68.609375 -19.410156 69.359375 -18.265625 L 74.6875 -11.5 C 72.632812 -9.09375 70.328125 -7.070312 67.765625 -5.4375 C 65.210938 -3.8125 62.546875 -2.507812 59.765625 -1.53125 C 56.992188 -0.5625 54.164062 0.117188 51.28125 0.515625 C 48.40625 0.921875 45.613281 1.125 42.90625 1.125 C 37.539062 1.125 32.554688 0.238281 27.953125 -1.53125 C 23.347656 -3.3125 19.335938 -5.941406 15.921875 -9.421875 C 12.515625 -12.910156 9.832031 -17.222656 7.875 -22.359375 C 5.925781 -27.492188 4.953125 -33.441406 4.953125 -40.203125 C 4.953125 -45.460938 5.800781 -50.40625 7.5 -55.03125 C 9.207031 -59.664062 11.648438 -63.695312 14.828125 -67.125 C 18.015625 -70.5625 21.898438 -73.28125 26.484375 -75.28125 C 31.066406 -77.289062 36.238281 -78.296875 42 -78.296875 C 46.863281 -78.296875 51.347656 -77.519531 55.453125 -75.96875 C 59.554688 -74.414062 63.085938 -72.148438 66.046875 -69.171875 C 69.003906 -66.191406 71.320312 -62.535156 73 -58.203125 C 74.675781 -53.867188 75.515625 -48.921875 75.515625 -43.359375 C 75.515625 -40.546875 75.210938 -38.648438 74.609375 -37.671875 C 74.015625 -36.703125 72.863281 -36.21875 71.15625 -36.21875 Z M 23.4375 -36.21875"/></g></g></g><g fill="#ffffff" fill-opacity="1"><g transform="translate(565.561093, 788.249912)"><g><path d="M 27.734375 -68.828125 C 30.734375 -71.628906 34.035156 -73.90625 37.640625 -75.65625 C 41.253906 -77.414062 45.488281 -78.296875 50.34375 -78.296875 C 54.550781 -78.296875 58.28125 -77.582031 61.53125 -76.15625 C 64.789062 -74.726562 67.507812 -72.722656 69.6875 -70.140625 C 71.875 -67.566406 73.53125 -64.488281 74.65625 -60.90625 C 75.78125 -57.320312 76.34375 -53.375 76.34375 -49.0625 L 76.34375 0 L 57.78125 0 L 57.78125 -49.0625 C 57.78125 -53.769531 56.703125 -57.414062 54.546875 -60 C 52.398438 -62.582031 49.117188 -63.875 44.703125 -63.875 C 41.503906 -63.875 38.5 -63.144531 35.6875 -61.6875 C 32.882812 -60.238281 30.234375 -58.257812 27.734375 -55.75 L 27.734375 0 L 9.171875 0 L 9.171875 -111.65625 L 27.734375 -111.65625 Z M 27.734375 -68.828125"/></g></g></g><g fill="#ffffff" fill-opacity="1"><g transform="translate(650.3131, 788.249912)"><g><path d="M 57.5625 -57.40625 C 55.457031 -59.957031 53.164062 -61.757812 50.6875 -62.8125 C 48.207031 -63.863281 45.539062 -64.390625 42.6875 -64.390625 C 39.875 -64.390625 37.335938 -63.863281 35.078125 -62.8125 C 32.828125 -61.757812 30.898438 -60.171875 29.296875 -58.046875 C 27.703125 -55.921875 26.476562 -53.21875 25.625 -49.9375 C 24.769531 -46.65625 24.34375 -42.785156 24.34375 -38.328125 C 24.34375 -33.816406 24.707031 -29.992188 25.4375 -26.859375 C 26.164062 -23.734375 27.203125 -21.179688 28.546875 -19.203125 C 29.898438 -17.222656 31.550781 -15.789062 33.5 -14.90625 C 35.457031 -14.03125 37.640625 -13.59375 40.046875 -13.59375 C 43.898438 -13.59375 47.179688 -14.394531 49.890625 -16 C 52.597656 -17.601562 55.15625 -19.882812 57.5625 -22.84375 Z M 76.125 -111.65625 L 76.125 0 L 64.765625 0 C 62.316406 0 60.765625 -1.125 60.109375 -3.375 L 58.53125 -10.8125 C 55.425781 -7.257812 51.859375 -4.378906 47.828125 -2.171875 C 43.796875 0.0234375 39.097656 1.125 33.734375 1.125 C 29.523438 1.125 25.664062 0.246094 22.15625 -1.5 C 18.65625 -3.25 15.640625 -5.789062 13.109375 -9.125 C 10.578125 -12.457031 8.625 -16.578125 7.25 -21.484375 C 5.875 -26.398438 5.1875 -32.015625 5.1875 -38.328125 C 5.1875 -44.035156 5.960938 -49.34375 7.515625 -54.25 C 9.066406 -59.15625 11.296875 -63.410156 14.203125 -67.015625 C 17.109375 -70.628906 20.585938 -73.445312 24.640625 -75.46875 C 28.703125 -77.5 33.265625 -78.515625 38.328125 -78.515625 C 42.628906 -78.515625 46.304688 -77.835938 49.359375 -76.484375 C 52.421875 -75.140625 55.15625 -73.316406 57.5625 -71.015625 L 57.5625 -111.65625 Z M 76.125 -111.65625"/></g></g></g><g fill="#ffffff" fill-opacity="1"><g transform="translate(735.591031, 788.249912)"><g><path d="M 28.40625 -77.09375 L 28.40625 0 L 9.765625 0 L 9.765625 -77.09375 Z M 30.953125 -99.5625 C 30.953125 -97.957031 30.625 -96.453125 29.96875 -95.046875 C 29.320312 -93.648438 28.457031 -92.425781 27.375 -91.375 C 26.300781 -90.320312 25.039062 -89.484375 23.59375 -88.859375 C 22.144531 -88.234375 20.59375 -87.921875 18.9375 -87.921875 C 17.332031 -87.921875 15.816406 -88.234375 14.390625 -88.859375 C 12.960938 -89.484375 11.722656 -90.320312 10.671875 -91.375 C 9.617188 -92.425781 8.78125 -93.648438 8.15625 -95.046875 C 7.53125 -96.453125 7.21875 -97.957031 7.21875 -99.5625 C 7.21875 -101.21875 7.53125 -102.769531 8.15625 -104.21875 C 8.78125 -105.675781 9.617188 -106.929688 10.671875 -107.984375 C 11.722656 -109.035156 12.960938 -109.875 14.390625 -110.5 C 15.816406 -111.125 17.332031 -111.4375 18.9375 -111.4375 C 20.59375 -111.4375 22.144531 -111.125 23.59375 -110.5 C 25.039062 -109.875 26.300781 -109.035156 27.375 -107.984375 C 28.457031 -106.929688 29.320312 -105.675781 29.96875 -104.21875 C 30.625 -102.769531 30.953125 -101.21875 30.953125 -99.5625 Z M 30.953125 -99.5625"/></g></g></g><g fill="#ffffff" fill-opacity="1"><g transform="translate(773.7595, 788.249912)"><g/></g></g><g fill="#ffffff" fill-opacity="1"><g transform="translate(810.274985, 788.249912)"><g><path d="M 53.5 -38.625 C 53.5 -32.507812 52.742188 -27 51.234375 -22.09375 C 49.734375 -17.1875 47.492188 -13.003906 44.515625 -9.546875 C 41.535156 -6.085938 37.816406 -3.429688 33.359375 -1.578125 C 28.898438 0.273438 23.71875 1.203125 17.8125 1.203125 C 15.101562 1.203125 12.445312 1.035156 9.84375 0.703125 C 7.238281 0.378906 4.507812 -0.128906 1.65625 -0.828125 C 1.800781 -2.828125 1.972656 -4.828125 2.171875 -6.828125 C 2.378906 -8.835938 2.554688 -10.84375 2.703125 -12.84375 C 2.859375 -13.945312 3.296875 -14.835938 4.015625 -15.515625 C 4.742188 -16.191406 5.785156 -16.53125 7.140625 -16.53125 C 7.992188 -16.53125 9.109375 -16.351562 10.484375 -16 C 11.859375 -15.65625 13.597656 -15.484375 15.703125 -15.484375 C 18.554688 -15.484375 21.082031 -15.894531 23.28125 -16.71875 C 25.488281 -17.539062 27.332031 -18.851562 28.8125 -20.65625 C 30.289062 -22.46875 31.40625 -24.8125 32.15625 -27.6875 C 32.90625 -30.570312 33.28125 -34.066406 33.28125 -38.171875 L 33.28125 -108.65625 L 53.5 -108.65625 Z M 53.5 -38.625"/></g></g></g><g fill="#ffffff" fill-opacity="1"><g transform="translate(874.81572, 788.249912)"><g><path d="M 49.890625 -32.90625 C 44.535156 -32.65625 40.03125 -32.191406 36.375 -31.515625 C 32.71875 -30.835938 29.785156 -29.972656 27.578125 -28.921875 C 25.367188 -27.867188 23.789062 -26.640625 22.84375 -25.234375 C 21.894531 -23.835938 21.421875 -22.3125 21.421875 -20.65625 C 21.421875 -17.40625 22.382812 -15.078125 24.3125 -13.671875 C 26.238281 -12.273438 28.753906 -11.578125 31.859375 -11.578125 C 35.671875 -11.578125 38.960938 -12.265625 41.734375 -13.640625 C 44.515625 -15.015625 47.234375 -17.101562 49.890625 -19.90625 Z M 7.359375 -66.34375 C 16.222656 -74.457031 26.894531 -78.515625 39.375 -78.515625 C 43.882812 -78.515625 47.914062 -77.773438 51.46875 -76.296875 C 55.03125 -74.828125 58.035156 -72.773438 60.484375 -70.140625 C 62.941406 -67.515625 64.804688 -64.375 66.078125 -60.71875 C 67.359375 -57.0625 68 -53.050781 68 -48.6875 L 68 0 L 59.59375 0 C 57.832031 0 56.472656 -0.257812 55.515625 -0.78125 C 54.566406 -1.3125 53.820312 -2.378906 53.28125 -3.984375 L 51.625 -9.546875 C 49.664062 -7.785156 47.757812 -6.242188 45.90625 -4.921875 C 44.050781 -3.597656 42.125 -2.484375 40.125 -1.578125 C 38.125 -0.671875 35.984375 0.015625 33.703125 0.484375 C 31.421875 0.960938 28.90625 1.203125 26.15625 1.203125 C 22.894531 1.203125 19.882812 0.765625 17.125 -0.109375 C 14.375 -0.984375 11.992188 -2.296875 9.984375 -4.046875 C 7.984375 -5.804688 6.429688 -7.988281 5.328125 -10.59375 C 4.234375 -13.195312 3.6875 -16.226562 3.6875 -19.6875 C 3.6875 -21.644531 4.007812 -23.585938 4.65625 -25.515625 C 5.3125 -27.441406 6.375 -29.28125 7.84375 -31.03125 C 9.320312 -32.78125 11.238281 -34.429688 13.59375 -35.984375 C 15.945312 -37.546875 18.835938 -38.898438 22.265625 -40.046875 C 25.703125 -41.203125 29.703125 -42.140625 34.265625 -42.859375 C 38.828125 -43.585938 44.035156 -44.03125 49.890625 -44.1875 L 49.890625 -48.6875 C 49.890625 -53.851562 48.785156 -57.675781 46.578125 -60.15625 C 44.378906 -62.632812 41.203125 -63.875 37.046875 -63.875 C 34.035156 -63.875 31.539062 -63.519531 29.5625 -62.8125 C 27.582031 -62.113281 25.84375 -61.328125 24.34375 -60.453125 C 22.84375 -59.578125 21.476562 -58.785156 20.25 -58.078125 C 19.019531 -57.378906 17.65625 -57.03125 16.15625 -57.03125 C 14.851562 -57.03125 13.75 -57.367188 12.84375 -58.046875 C 11.945312 -58.722656 11.222656 -59.507812 10.671875 -60.40625 Z M 7.359375 -66.34375"/></g></g></g><g fill="#ffffff" fill-opacity="1"><g transform="translate(951.077493, 788.249912)"><g><path d="M 27.734375 -19.984375 C 29.835938 -17.429688 32.128906 -15.628906 34.609375 -14.578125 C 37.085938 -13.523438 39.703125 -13 42.453125 -13 C 45.304688 -13 47.875 -13.507812 50.15625 -14.53125 C 52.4375 -15.5625 54.378906 -17.164062 55.984375 -19.34375 C 57.585938 -21.53125 58.8125 -24.3125 59.65625 -27.6875 C 60.507812 -31.070312 60.9375 -35.117188 60.9375 -39.828125 C 60.9375 -48.285156 59.53125 -54.40625 56.71875 -58.1875 C 53.914062 -61.976562 49.890625 -63.875 44.640625 -63.875 C 41.078125 -63.875 37.96875 -63.054688 35.3125 -61.421875 C 32.65625 -59.796875 30.128906 -57.503906 27.734375 -54.546875 Z M 27.734375 -67.625 C 30.835938 -70.882812 34.28125 -73.476562 38.0625 -75.40625 C 41.84375 -77.332031 46.160156 -78.296875 51.015625 -78.296875 C 55.472656 -78.296875 59.492188 -77.414062 63.078125 -75.65625 C 66.660156 -73.90625 69.71875 -71.390625 72.25 -68.109375 C 74.78125 -64.828125 76.71875 -60.859375 78.0625 -56.203125 C 79.414062 -51.546875 80.09375 -46.3125 80.09375 -40.5 C 80.09375 -34.238281 79.316406 -28.550781 77.765625 -23.4375 C 76.210938 -18.332031 73.992188 -13.960938 71.109375 -10.328125 C 68.234375 -6.703125 64.765625 -3.882812 60.703125 -1.875 C 56.648438 0.121094 52.144531 1.125 47.1875 1.125 C 44.78125 1.125 42.597656 0.882812 40.640625 0.40625 C 38.691406 -0.0585938 36.890625 -0.722656 35.234375 -1.578125 C 33.585938 -2.429688 32.070312 -3.46875 30.6875 -4.6875 C 29.3125 -5.914062 28 -7.285156 26.75 -8.796875 L 25.921875 -3.609375 C 25.617188 -2.304688 25.101562 -1.378906 24.375 -0.828125 C 23.65625 -0.273438 22.671875 0 21.421875 0 L 9.171875 0 L 9.171875 -111.65625 L 27.734375 -111.65625 Z M 27.734375 -67.625"/></g></g></g><g fill="#ffffff" fill-opacity="1"><g transform="translate(1036.355424, 788.249912)"><g><path d="M 26.671875 -63.71875 C 29.078125 -68.320312 31.929688 -71.9375 35.234375 -74.5625 C 38.546875 -77.195312 42.457031 -78.515625 46.96875 -78.515625 C 50.519531 -78.515625 53.375 -77.738281 55.53125 -76.1875 L 54.328125 -62.296875 C 54.078125 -61.390625 53.710938 -60.75 53.234375 -60.375 C 52.753906 -60 52.117188 -59.8125 51.328125 -59.8125 C 50.566406 -59.8125 49.445312 -59.9375 47.96875 -60.1875 C 46.5 -60.4375 45.0625 -60.5625 43.65625 -60.5625 C 41.601562 -60.5625 39.773438 -60.257812 38.171875 -59.65625 C 36.566406 -59.0625 35.125 -58.195312 33.84375 -57.0625 C 32.570312 -55.9375 31.445312 -54.570312 30.46875 -52.96875 C 29.488281 -51.363281 28.578125 -49.535156 27.734375 -47.484375 L 27.734375 0 L 9.171875 0 L 9.171875 -77.09375 L 20.0625 -77.09375 C 21.96875 -77.09375 23.296875 -76.753906 24.046875 -76.078125 C 24.796875 -75.398438 25.296875 -74.1875 25.546875 -72.4375 Z M 26.671875 -63.71875"/></g></g></g><g fill="#ffffff" fill-opacity="1"><g transform="translate(1092.405972, 788.249912)"><g><path d="M 79.203125 -77.09375 L 37.1875 21.1875 C 36.644531 22.488281 35.929688 23.476562 35.046875 24.15625 C 34.171875 24.832031 32.832031 25.171875 31.03125 25.171875 L 17.203125 25.171875 L 31.640625 -5.78125 L 0.453125 -77.09375 L 16.75 -77.09375 C 18.207031 -77.09375 19.347656 -76.738281 20.171875 -76.03125 C 21.003906 -75.332031 21.617188 -74.535156 22.015625 -73.640625 L 38.390625 -33.65625 C 38.941406 -32.3125 39.40625 -30.960938 39.78125 -29.609375 C 40.15625 -28.253906 40.519531 -26.875 40.875 -25.46875 C 41.320312 -26.875 41.769531 -28.265625 42.21875 -29.640625 C 42.675781 -31.015625 43.179688 -32.378906 43.734375 -33.734375 L 59.203125 -73.640625 C 59.609375 -74.640625 60.273438 -75.460938 61.203125 -76.109375 C 62.128906 -76.765625 63.171875 -77.09375 64.328125 -77.09375 Z M 79.203125 -77.09375"/></g></g></g><g fill="#a6a6a6" fill-opacity="1"><g transform="translate(515.999989, 883.124904)"><g><path d="M 69.390625 -48.75 L 54.1875 0 L 48.265625 0 L 35.921875 -37.171875 C 35.804688 -37.535156 35.695312 -37.921875 35.59375 -38.328125 C 35.488281 -38.742188 35.382812 -39.175781 35.28125 -39.625 C 35.164062 -39.175781 35.050781 -38.742188 34.9375 -38.328125 C 34.820312 -37.921875 34.707031 -37.535156 34.59375 -37.171875 L 22.171875 0 L 16.265625 0 L 1.046875 -48.75 L 6.53125 -48.75 C 7.125 -48.75 7.617188 -48.597656 8.015625 -48.296875 C 8.410156 -48.003906 8.664062 -47.632812 8.78125 -47.1875 L 18.84375 -13.296875 C 19 -12.679688 19.148438 -12.019531 19.296875 -11.3125 C 19.453125 -10.613281 19.597656 -9.867188 19.734375 -9.078125 C 19.890625 -9.867188 20.050781 -10.625 20.21875 -11.34375 C 20.394531 -12.0625 20.582031 -12.710938 20.78125 -13.296875 L 32.25 -47.1875 C 32.382812 -47.570312 32.648438 -47.925781 33.046875 -48.25 C 33.441406 -48.582031 33.921875 -48.75 34.484375 -48.75 L 36.390625 -48.75 C 36.984375 -48.75 37.460938 -48.597656 37.828125 -48.296875 C 38.191406 -48.003906 38.460938 -47.632812 38.640625 -47.1875 L 50.078125 -13.296875 C 50.273438 -12.710938 50.457031 -12.078125 50.625 -11.390625 C 50.800781 -10.710938 50.96875 -10 51.125 -9.25 C 51.238281 -10 51.363281 -10.710938 51.5 -11.390625 C 51.632812 -12.078125 51.78125 -12.710938 51.9375 -13.296875 L 62.046875 -47.1875 C 62.160156 -47.59375 62.414062 -47.953125 62.8125 -48.265625 C 63.207031 -48.585938 63.6875 -48.75 64.25 -48.75 Z M 69.390625 -48.75"/></g></g></g><g fill="#a6a6a6" fill-opacity="1"><g transform="translate(586.442213, 883.124904)"><g><path d="M 27.859375 -20.984375 C 27.859375 -22.390625 27.660156 -23.675781 27.265625 -24.84375 C 26.867188 -26.007812 26.289062 -27.019531 25.53125 -27.875 C 24.769531 -28.726562 23.84375 -29.382812 22.75 -29.84375 C 21.664062 -30.3125 20.429688 -30.546875 19.046875 -30.546875 C 16.140625 -30.546875 13.84375 -29.703125 12.15625 -28.015625 C 10.46875 -26.328125 9.421875 -23.984375 9.015625 -20.984375 Z M 32.75 -4.828125 C 32.007812 -3.921875 31.113281 -3.132812 30.0625 -2.46875 C 29.019531 -1.800781 27.90625 -1.25 26.71875 -0.8125 C 25.53125 -0.382812 24.300781 -0.0664062 23.03125 0.140625 C 21.757812 0.359375 20.5 0.46875 19.25 0.46875 C 16.875 0.46875 14.679688 0.0664062 12.671875 -0.734375 C 10.660156 -1.535156 8.921875 -2.710938 7.453125 -4.265625 C 5.992188 -5.816406 4.859375 -7.738281 4.046875 -10.03125 C 3.234375 -12.320312 2.828125 -14.953125 2.828125 -17.921875 C 2.828125 -20.328125 3.191406 -22.570312 3.921875 -24.65625 C 4.660156 -26.75 5.722656 -28.5625 7.109375 -30.09375 C 8.492188 -31.625 10.179688 -32.820312 12.171875 -33.6875 C 14.171875 -34.5625 16.414062 -35 18.90625 -35 C 20.976562 -35 22.890625 -34.648438 24.640625 -33.953125 C 26.398438 -33.265625 27.921875 -32.269531 29.203125 -30.96875 C 30.484375 -29.664062 31.484375 -28.054688 32.203125 -26.140625 C 32.929688 -24.222656 33.296875 -22.039062 33.296875 -19.59375 C 33.296875 -18.644531 33.191406 -18.007812 32.984375 -17.6875 C 32.785156 -17.375 32.40625 -17.21875 31.84375 -17.21875 L 8.8125 -17.21875 C 8.875 -15.039062 9.171875 -13.144531 9.703125 -11.53125 C 10.242188 -9.914062 10.988281 -8.570312 11.9375 -7.5 C 12.894531 -6.425781 14.03125 -5.617188 15.34375 -5.078125 C 16.65625 -4.546875 18.128906 -4.28125 19.765625 -4.28125 C 21.285156 -4.28125 22.59375 -4.457031 23.6875 -4.8125 C 24.789062 -5.164062 25.738281 -5.546875 26.53125 -5.953125 C 27.320312 -6.359375 27.984375 -6.738281 28.515625 -7.09375 C 29.054688 -7.445312 29.519531 -7.625 29.90625 -7.625 C 30.394531 -7.625 30.78125 -7.429688 31.0625 -7.046875 Z M 32.75 -4.828125"/></g></g></g><g fill="#a6a6a6" fill-opacity="1"><g transform="translate(622.360603, 883.124904)"><g><path d="M 10.890625 -8.296875 C 11.992188 -6.804688 13.207031 -5.753906 14.53125 -5.140625 C 15.863281 -4.523438 17.320312 -4.21875 18.90625 -4.21875 C 22.15625 -4.21875 24.640625 -5.363281 26.359375 -7.65625 C 28.085938 -9.945312 28.953125 -13.359375 28.953125 -17.890625 C 28.953125 -22.109375 28.1875 -25.207031 26.65625 -27.1875 C 25.125 -29.175781 22.941406 -30.171875 20.109375 -30.171875 C 18.128906 -30.171875 16.40625 -29.71875 14.9375 -28.8125 C 13.476562 -27.90625 12.128906 -26.625 10.890625 -24.96875 Z M 10.890625 -29.484375 C 12.335938 -31.171875 13.972656 -32.507812 15.796875 -33.5 C 17.617188 -34.5 19.722656 -35 22.109375 -35 C 24.128906 -35 25.945312 -34.613281 27.5625 -33.84375 C 29.1875 -33.070312 30.566406 -31.953125 31.703125 -30.484375 C 32.835938 -29.023438 33.703125 -27.253906 34.296875 -25.171875 C 34.898438 -23.085938 35.203125 -20.738281 35.203125 -18.125 C 35.203125 -15.34375 34.863281 -12.804688 34.1875 -10.515625 C 33.507812 -8.222656 32.53125 -6.265625 31.25 -4.640625 C 29.96875 -3.023438 28.40625 -1.769531 26.5625 -0.875 C 24.726562 0.0195312 22.664062 0.46875 20.375 0.46875 C 18.101562 0.46875 16.191406 0.0429688 14.640625 -0.796875 C 13.085938 -1.648438 11.734375 -2.859375 10.578125 -4.421875 L 10.265625 -1.296875 C 10.085938 -0.429688 9.566406 0 8.703125 0 L 4.796875 0 L 4.796875 -50.109375 L 10.890625 -50.109375 Z M 10.890625 -29.484375"/></g></g></g><g fill="#a6a6a6" fill-opacity="1"><g transform="translate(660.455864, 883.124904)"><g/></g></g><g fill="#a6a6a6" fill-opacity="1"><g transform="translate(677.870841, 883.124904)"><g><path d="M 48.46875 -24.359375 C 48.46875 -20.703125 47.890625 -17.378906 46.734375 -14.390625 C 45.578125 -11.398438 43.941406 -8.835938 41.828125 -6.703125 C 39.722656 -4.566406 37.191406 -2.914062 34.234375 -1.75 C 31.273438 -0.582031 28.003906 0 24.421875 0 L 6.21875 0 L 6.21875 -48.75 L 24.421875 -48.75 C 28.003906 -48.75 31.273438 -48.160156 34.234375 -46.984375 C 37.191406 -45.816406 39.722656 -44.160156 41.828125 -42.015625 C 43.941406 -39.878906 45.578125 -37.3125 46.734375 -34.3125 C 47.890625 -31.320312 48.46875 -28.003906 48.46875 -24.359375 Z M 41.703125 -24.359375 C 41.703125 -27.347656 41.289062 -30.019531 40.46875 -32.375 C 39.65625 -34.738281 38.5 -36.734375 37 -38.359375 C 35.507812 -39.992188 33.695312 -41.242188 31.5625 -42.109375 C 29.4375 -42.972656 27.054688 -43.40625 24.421875 -43.40625 L 12.828125 -43.40625 L 12.828125 -5.34375 L 24.421875 -5.34375 C 27.054688 -5.34375 29.4375 -5.769531 31.5625 -6.625 C 33.695312 -7.488281 35.507812 -8.734375 37 -10.359375 C 38.5 -11.984375 39.65625 -13.972656 40.46875 -16.328125 C 41.289062 -18.679688 41.703125 -21.359375 41.703125 -24.359375 Z M 41.703125 -24.359375"/></g></g></g><g fill="#a6a6a6" fill-opacity="1"><g transform="translate(729.60557, 883.124904)"><g><path d="M 27.859375 -20.984375 C 27.859375 -22.390625 27.660156 -23.675781 27.265625 -24.84375 C 26.867188 -26.007812 26.289062 -27.019531 25.53125 -27.875 C 24.769531 -28.726562 23.84375 -29.382812 22.75 -29.84375 C 21.664062 -30.3125 20.429688 -30.546875 19.046875 -30.546875 C 16.140625 -30.546875 13.84375 -29.703125 12.15625 -28.015625 C 10.46875 -26.328125 9.421875 -23.984375 9.015625 -20.984375 Z M 32.75 -4.828125 C 32.007812 -3.921875 31.113281 -3.132812 30.0625 -2.46875 C 29.019531 -1.800781 27.90625 -1.25 26.71875 -0.8125 C 25.53125 -0.382812 24.300781 -0.0664062 23.03125 0.140625 C 21.757812 0.359375 20.5 0.46875 19.25 0.46875 C 16.875 0.46875 14.679688 0.0664062 12.671875 -0.734375 C 10.660156 -1.535156 8.921875 -2.710938 7.453125 -4.265625 C 5.992188 -5.816406 4.859375 -7.738281 4.046875 -10.03125 C 3.234375 -12.320312 2.828125 -14.953125 2.828125 -17.921875 C 2.828125 -20.328125 3.191406 -22.570312 3.921875 -24.65625 C 4.660156 -26.75 5.722656 -28.5625 7.109375 -30.09375 C 8.492188 -31.625 10.179688 -32.820312 12.171875 -33.6875 C 14.171875 -34.5625 16.414062 -35 18.90625 -35 C 20.976562 -35 22.890625 -34.648438 24.640625 -33.953125 C 26.398438 -33.265625 27.921875 -32.269531 29.203125 -30.96875 C 30.484375 -29.664062 31.484375 -28.054688 32.203125 -26.140625 C 32.929688 -24.222656 33.296875 -22.039062 33.296875 -19.59375 C 33.296875 -18.644531 33.191406 -18.007812 32.984375 -17.6875 C 32.785156 -17.375 32.40625 -17.21875 31.84375 -17.21875 L 8.8125 -17.21875 C 8.875 -15.039062 9.171875 -13.144531 9.703125 -11.53125 C 10.242188 -9.914062 10.988281 -8.570312 11.9375 -7.5 C 12.894531 -6.425781 14.03125 -5.617188 15.34375 -5.078125 C 16.65625 -4.546875 18.128906 -4.28125 19.765625 -4.28125 C 21.285156 -4.28125 22.59375 -4.457031 23.6875 -4.8125 C 24.789062 -5.164062 25.738281 -5.546875 26.53125 -5.953125 C 27.320312 -6.359375 27.984375 -6.738281 28.515625 -7.09375 C 29.054688 -7.445312 29.519531 -7.625 29.90625 -7.625 C 30.394531 -7.625 30.78125 -7.429688 31.0625 -7.046875 Z M 32.75 -4.828125"/></g></g></g><g fill="#a6a6a6" fill-opacity="1"><g transform="translate(765.523971, 883.124904)"><g><path d="M 34.328125 -34.453125 L 20.265625 0 L 14.828125 0 L 0.78125 -34.453125 L 5.71875 -34.453125 C 6.21875 -34.453125 6.625 -34.328125 6.9375 -34.078125 C 7.257812 -33.828125 7.472656 -33.535156 7.578125 -33.203125 L 16.328125 -11.015625 C 16.597656 -10.179688 16.832031 -9.363281 17.03125 -8.5625 C 17.238281 -7.769531 17.4375 -6.976562 17.625 -6.1875 C 17.800781 -6.976562 17.988281 -7.769531 18.1875 -8.5625 C 18.394531 -9.363281 18.648438 -10.179688 18.953125 -11.015625 L 27.796875 -33.203125 C 27.929688 -33.566406 28.15625 -33.863281 28.46875 -34.09375 C 28.789062 -34.332031 29.164062 -34.453125 29.59375 -34.453125 Z M 34.328125 -34.453125"/></g></g></g><g fill="#a6a6a6" fill-opacity="1"><g transform="translate(800.626018, 883.124904)"><g><path d="M 27.859375 -20.984375 C 27.859375 -22.390625 27.660156 -23.675781 27.265625 -24.84375 C 26.867188 -26.007812 26.289062 -27.019531 25.53125 -27.875 C 24.769531 -28.726562 23.84375 -29.382812 22.75 -29.84375 C 21.664062 -30.3125 20.429688 -30.546875 19.046875 -30.546875 C 16.140625 -30.546875 13.84375 -29.703125 12.15625 -28.015625 C 10.46875 -26.328125 9.421875 -23.984375 9.015625 -20.984375 Z M 32.75 -4.828125 C 32.007812 -3.921875 31.113281 -3.132812 30.0625 -2.46875 C 29.019531 -1.800781 27.90625 -1.25 26.71875 -0.8125 C 25.53125 -0.382812 24.300781 -0.0664062 23.03125 0.140625 C 21.757812 0.359375 20.5 0.46875 19.25 0.46875 C 16.875 0.46875 14.679688 0.0664062 12.671875 -0.734375 C 10.660156 -1.535156 8.921875 -2.710938 7.453125 -4.265625 C 5.992188 -5.816406 4.859375 -7.738281 4.046875 -10.03125 C 3.234375 -12.320312 2.828125 -14.953125 2.828125 -17.921875 C 2.828125 -20.328125 3.191406 -22.570312 3.921875 -24.65625 C 4.660156 -26.75 5.722656 -28.5625 7.109375 -30.09375 C 8.492188 -31.625 10.179688 -32.820312 12.171875 -33.6875 C 14.171875 -34.5625 16.414062 -35 18.90625 -35 C 20.976562 -35 22.890625 -34.648438 24.640625 -33.953125 C 26.398438 -33.265625 27.921875 -32.269531 29.203125 -30.96875 C 30.484375 -29.664062 31.484375 -28.054688 32.203125 -26.140625 C 32.929688 -24.222656 33.296875 -22.039062 33.296875 -19.59375 C 33.296875 -18.644531 33.191406 -18.007812 32.984375 -17.6875 C 32.785156 -17.375 32.40625 -17.21875 31.84375 -17.21875 L 8.8125 -17.21875 C 8.875 -15.039062 9.171875 -13.144531 9.703125 -11.53125 C 10.242188 -9.914062 10.988281 -8.570312 11.9375 -7.5 C 12.894531 -6.425781 14.03125 -5.617188 15.34375 -5.078125 C 16.65625 -4.546875 18.128906 -4.28125 19.765625 -4.28125 C 21.285156 -4.28125 22.59375 -4.457031 23.6875 -4.8125 C 24.789062 -5.164062 25.738281 -5.546875 26.53125 -5.953125 C 27.320312 -6.359375 27.984375 -6.738281 28.515625 -7.09375 C 29.054688 -7.445312 29.519531 -7.625 29.90625 -7.625 C 30.394531 -7.625 30.78125 -7.429688 31.0625 -7.046875 Z M 32.75 -4.828125"/></g></g></g><g fill="#a6a6a6" fill-opacity="1"><g transform="translate(836.544396, 883.124904)"><g><path d="M 11.0625 -50.109375 L 11.0625 0 L 5 0 L 5 -50.109375 Z M 11.0625 -50.109375"/></g></g></g><g fill="#a6a6a6" fill-opacity="1"><g transform="translate(852.598853, 883.124904)"><g><path d="M 19.328125 -35 C 21.835938 -35 24.101562 -34.578125 26.125 -33.734375 C 28.144531 -32.898438 29.867188 -31.710938 31.296875 -30.171875 C 32.722656 -28.628906 33.816406 -26.765625 34.578125 -24.578125 C 35.335938 -22.390625 35.71875 -19.945312 35.71875 -17.25 C 35.71875 -14.519531 35.335938 -12.066406 34.578125 -9.890625 C 33.816406 -7.722656 32.722656 -5.863281 31.296875 -4.3125 C 29.867188 -2.769531 28.144531 -1.585938 26.125 -0.765625 C 24.101562 0.0546875 21.835938 0.46875 19.328125 0.46875 C 16.785156 0.46875 14.5 0.0546875 12.46875 -0.765625 C 10.4375 -1.585938 8.707031 -2.769531 7.28125 -4.3125 C 5.851562 -5.863281 4.757812 -7.722656 4 -9.890625 C 3.238281 -12.066406 2.859375 -14.519531 2.859375 -17.25 C 2.859375 -19.945312 3.238281 -22.390625 4 -24.578125 C 4.757812 -26.765625 5.851562 -28.628906 7.28125 -30.171875 C 8.707031 -31.710938 10.4375 -32.898438 12.46875 -33.734375 C 14.5 -34.578125 16.785156 -35 19.328125 -35 Z M 19.328125 -4.25 C 22.722656 -4.25 25.257812 -5.390625 26.9375 -7.671875 C 28.613281 -9.953125 29.453125 -13.132812 29.453125 -17.21875 C 29.453125 -21.320312 28.613281 -24.515625 26.9375 -26.796875 C 25.257812 -29.085938 22.722656 -30.234375 19.328125 -30.234375 C 17.597656 -30.234375 16.09375 -29.9375 14.8125 -29.34375 C 13.53125 -28.757812 12.460938 -27.910156 11.609375 -26.796875 C 10.765625 -25.691406 10.128906 -24.328125 9.703125 -22.703125 C 9.285156 -21.078125 9.078125 -19.25 9.078125 -17.21875 C 9.078125 -13.132812 9.921875 -9.953125 11.609375 -7.671875 C 13.304688 -5.390625 15.878906 -4.25 19.328125 -4.25 Z M 19.328125 -4.25"/></g></g></g><g fill="#a6a6a6" fill-opacity="1"><g transform="translate(891.170291, 883.124904)"><g><path d="M 10.890625 -8.296875 C 11.992188 -6.804688 13.203125 -5.753906 14.515625 -5.140625 C 15.835938 -4.523438 17.316406 -4.21875 18.953125 -4.21875 C 22.171875 -4.21875 24.640625 -5.363281 26.359375 -7.65625 C 28.085938 -9.945312 28.953125 -13.210938 28.953125 -17.453125 C 28.953125 -19.691406 28.75 -21.613281 28.34375 -23.21875 C 27.945312 -24.832031 27.375 -26.15625 26.625 -27.1875 C 25.882812 -28.226562 24.96875 -28.984375 23.875 -29.453125 C 22.789062 -29.929688 21.554688 -30.171875 20.171875 -30.171875 C 18.203125 -30.171875 16.472656 -29.71875 14.984375 -28.8125 C 13.492188 -27.90625 12.128906 -26.625 10.890625 -24.96875 Z M 10.578125 -29.125 C 12.023438 -30.90625 13.703125 -32.335938 15.609375 -33.421875 C 17.515625 -34.515625 19.691406 -35.0625 22.140625 -35.0625 C 24.140625 -35.0625 25.941406 -34.679688 27.546875 -33.921875 C 29.160156 -33.171875 30.535156 -32.050781 31.671875 -30.5625 C 32.804688 -29.070312 33.675781 -27.226562 34.28125 -25.03125 C 34.894531 -22.832031 35.203125 -20.304688 35.203125 -17.453125 C 35.203125 -14.910156 34.863281 -12.546875 34.1875 -10.359375 C 33.507812 -8.171875 32.53125 -6.273438 31.25 -4.671875 C 29.96875 -3.078125 28.398438 -1.820312 26.546875 -0.90625 C 24.703125 0.0078125 22.625 0.46875 20.3125 0.46875 C 18.195312 0.46875 16.382812 0.113281 14.875 -0.59375 C 13.375 -1.3125 12.046875 -2.304688 10.890625 -3.578125 L 10.890625 11.671875 L 4.796875 11.671875 L 4.796875 -34.453125 L 8.4375 -34.453125 C 9.300781 -34.453125 9.832031 -34.035156 10.03125 -33.203125 Z M 10.578125 -29.125"/></g></g></g><g fill="#a6a6a6" fill-opacity="1"><g transform="translate(929.299576, 883.124904)"><g><path d="M 27.859375 -20.984375 C 27.859375 -22.390625 27.660156 -23.675781 27.265625 -24.84375 C 26.867188 -26.007812 26.289062 -27.019531 25.53125 -27.875 C 24.769531 -28.726562 23.84375 -29.382812 22.75 -29.84375 C 21.664062 -30.3125 20.429688 -30.546875 19.046875 -30.546875 C 16.140625 -30.546875 13.84375 -29.703125 12.15625 -28.015625 C 10.46875 -26.328125 9.421875 -23.984375 9.015625 -20.984375 Z M 32.75 -4.828125 C 32.007812 -3.921875 31.113281 -3.132812 30.0625 -2.46875 C 29.019531 -1.800781 27.90625 -1.25 26.71875 -0.8125 C 25.53125 -0.382812 24.300781 -0.0664062 23.03125 0.140625 C 21.757812 0.359375 20.5 0.46875 19.25 0.46875 C 16.875 0.46875 14.679688 0.0664062 12.671875 -0.734375 C 10.660156 -1.535156 8.921875 -2.710938 7.453125 -4.265625 C 5.992188 -5.816406 4.859375 -7.738281 4.046875 -10.03125 C 3.234375 -12.320312 2.828125 -14.953125 2.828125 -17.921875 C 2.828125 -20.328125 3.191406 -22.570312 3.921875 -24.65625 C 4.660156 -26.75 5.722656 -28.5625 7.109375 -30.09375 C 8.492188 -31.625 10.179688 -32.820312 12.171875 -33.6875 C 14.171875 -34.5625 16.414062 -35 18.90625 -35 C 20.976562 -35 22.890625 -34.648438 24.640625 -33.953125 C 26.398438 -33.265625 27.921875 -32.269531 29.203125 -30.96875 C 30.484375 -29.664062 31.484375 -28.054688 32.203125 -26.140625 C 32.929688 -24.222656 33.296875 -22.039062 33.296875 -19.59375 C 33.296875 -18.644531 33.191406 -18.007812 32.984375 -17.6875 C 32.785156 -17.375 32.40625 -17.21875 31.84375 -17.21875 L 8.8125 -17.21875 C 8.875 -15.039062 9.171875 -13.144531 9.703125 -11.53125 C 10.242188 -9.914062 10.988281 -8.570312 11.9375 -7.5 C 12.894531 -6.425781 14.03125 -5.617188 15.34375 -5.078125 C 16.65625 -4.546875 18.128906 -4.28125 19.765625 -4.28125 C 21.285156 -4.28125 22.59375 -4.457031 23.6875 -4.8125 C 24.789062 -5.164062 25.738281 -5.546875 26.53125 -5.953125 C 27.320312 -6.359375 27.984375 -6.738281 28.515625 -7.09375 C 29.054688 -7.445312 29.519531 -7.625 29.90625 -7.625 C 30.394531 -7.625 30.78125 -7.429688 31.0625 -7.046875 Z M 32.75 -4.828125"/></g></g></g><g fill="#a6a6a6" fill-opacity="1"><g transform="translate(965.217953, 883.124904)"><g><path d="M 10.546875 -27.546875 C 11.628906 -29.910156 12.960938 -31.753906 14.546875 -33.078125 C 16.140625 -34.398438 18.082031 -35.0625 20.375 -35.0625 C 21.101562 -35.0625 21.800781 -34.984375 22.46875 -34.828125 C 23.132812 -34.671875 23.726562 -34.421875 24.25 -34.078125 L 23.8125 -29.5625 C 23.675781 -28.988281 23.335938 -28.703125 22.796875 -28.703125 C 22.472656 -28.703125 22.003906 -28.769531 21.390625 -28.90625 C 20.785156 -29.050781 20.097656 -29.125 19.328125 -29.125 C 18.234375 -29.125 17.257812 -28.960938 16.40625 -28.640625 C 15.5625 -28.328125 14.800781 -27.859375 14.125 -27.234375 C 13.457031 -26.609375 12.859375 -25.832031 12.328125 -24.90625 C 11.796875 -23.988281 11.316406 -22.941406 10.890625 -21.765625 L 10.890625 0 L 4.796875 0 L 4.796875 -34.453125 L 8.265625 -34.453125 C 8.921875 -34.453125 9.375 -34.328125 9.625 -34.078125 C 9.875 -33.828125 10.046875 -33.398438 10.140625 -32.796875 Z M 10.546875 -27.546875"/></g></g></g></svg>